<?xml version="1.0" encoding="UTF-8"?>
<svg width="1200pt" height="1200pt" version="1.1" viewBox="0 0 1200 1200" xmlns="http://www.w3.org/2000/svg">
 <g>
  <path d="m675 630c-19.105-19.105-44.23-19.934-60-14.172v-135.83c0-135 96.59-165 96.59-165-75 75-75 150-75 150 180 0 157.5-225 157.5-225-206.81 0-216.95 127.11-217.45 205.71-28.031-47.289-88.453-85.715-216.64-85.715 0 0 0 180 180 180 0 0 0-60-81.59-120 0 0 111.59 30 111.59 150v45s-26.016-9.4922-45 0c-30 15-47.508 24.816-60 30-12.949 5.3633-39.156 1.1758-43.992 11.484 17.34 14.027 36.469 25.895 56.785 35.594 34.176 12.695 76.715 24.434 108.74 27.254 4.5 0.19922 8.918 0.66797 13.465 0.66797 7.1641 0 14.195-0.55078 21.227-1.0664 4.668-0.38281 10.008-0.92578 15.781-1.6211 52.453-6.8516 100.43-27.887 139.95-59.305-10.25-6.6367-44.27-28.008-56.953-28.008-15 0-30 15-45 0z"/>
  <path d="m600 60c-206.77 0-375 168.23-375 375 0 7.9688 0.33594 15.875 0.82812 23.762 0.21484 3.5742 0.51562 7.1523 0.81641 10.754 0.22656 2.375 0.45703 4.7773 0.71875 7.1523 28.754 286.61 336.45 637.7 350.16 653.21 5.7109 6.4297 13.898 10.125 22.477 10.125s16.766-3.6953 22.477-10.141c13.715-15.504 321.41-366.59 350.16-653.21 0.25391-2.375 0.49219-4.7773 0.71875-7.1523 0.30078-3.6016 0.61328-7.1758 0.81641-10.754 0.49219-7.8828 0.82812-15.793 0.82812-23.762 0-206.76-168.23-374.98-375-374.98zm0 690c-173.96 0-315-141.04-315-315s141.04-315 315-315 315 141.04 315 315-141.04 315-315 315z"/>
 </g>
</svg>
